<svg width="72" height="78" viewBox="0 0 72 78" fill="none" xmlns="http://www.w3.org/2000/svg">
<path d="M22.9852 57.6587L22.9481 73.93L67.6867 45.6688L67.7242 29.4079L22.9852 57.6587Z" fill="#E0A769"/>
<path d="M67.6867 29.4541L48.5129 17.3421L3.77425 45.6033L22.9481 57.7148L67.6867 29.4541Z" fill="#F4BA6C"/>
<path d="M22.9481 73.93L3.77425 61.818L3.81171 45.6309L10.1746 49.6228L22.9852 57.6588L22.9481 73.93Z" fill="#CC9466"/>
<path d="M46.7234 40.2799V16.0831L33.9409 8.07433L33.9034 32.2746L46.7234 40.2799Z" fill="#CC9466"/>
<path d="M59.5432 32.2746L46.7235 40.28V16.0832L59.5432 8.05109V32.2746Z" fill="#E0A769"/>
<path d="M33.941 8.07438L46.7235 0L59.5432 8.05108L46.7235 16.0832L33.941 8.07438Z" fill="#F4BA6C"/>
<path d="M22.9482 49.706L10.1135 41.5989V25.4497L22.9852 33.5335L22.9482 49.706Z" fill="#CC9466"/>
<path d="M42.0179 37.5284L22.9481 49.706L22.9852 33.5335L42.0699 21.4124L42.0179 37.5284Z" fill="#E0A769"/>
<path d="M10.1135 25.4496L29.3394 13.3704L42.07 21.4124L22.9852 33.5335L10.1135 25.4496Z" fill="#F4BA6C"/>
<path d="M29.3394 69.8923L42.0699 77.9999V65.9807L29.3394 57.842V69.8923Z" fill="#CC9466"/>
<path d="M54.9042 69.8924L42.07 78V65.9807L54.9042 57.9391V69.8924Z" fill="#E0A769"/>
<path d="M42.0699 49.8976L54.9041 57.9392L42.0699 65.9808L29.3394 57.8421L42.0699 49.8976Z" fill="#D8A261"/>
<path d="M42.07 49.8976V61.8508L45.4042 63.8914L54.9042 57.9392L42.07 49.8976Z" fill="#A57755"/>
<path d="M29.3394 57.8421L42.0699 49.8976V61.8508L38.8015 63.8914L29.3394 57.8421Z" fill="#B28456"/>
<path d="M29.3393 57.842L25.0304 63.6722L37.8129 71.7841L42.1219 65.9535" fill="#F4BA6C"/>
<path d="M54.9041 57.9392L58.1374 58.9172L45.3549 50.8057L42.1219 49.8273L54.9041 57.9392Z" fill="#F4BA6C"/>
<path d="M46.6423 63.0924V72.1552L50.1295 69.9523V60.969L46.6423 63.0924Z" fill="#F2BE8F"/>
<path d="M42.1219 66.0506L44.752 71.0352L57.5345 62.9233L54.9041 57.9391L42.1219 66.0506Z" fill="#F4BA6C"/>
<path d="M40.2308 4.10144L52.9866 12.159" stroke="#CC9466" stroke-width="6.48" stroke-miterlimit="10"/>
<path d="M15.5715 40.5518V41.5307L10.8422 38.5432V37.5643L15.5715 40.5518Z" fill="#353535"/>
<path d="M13.3985 65.4457V66.425L8.66877 63.4375V62.4581L13.3985 65.4457Z" fill="#353535"/>
<path d="M6.4957 60.6601V61.6955C6.4957 61.8991 6.34468 61.969 6.15857 61.8513L5.21223 61.2546C5.02573 61.1368 4.87471 60.8763 4.87471 60.6722V59.6368C4.87471 59.4327 5.02573 59.3628 5.21223 59.4806L6.15857 60.0777C6.34468 60.1955 6.4957 60.4565 6.4957 60.6601Z" stroke="#353535" stroke-width="9.73" stroke-miterlimit="10"/>
<path d="M6.4957 58.1428V59.1782C6.4957 59.3823 6.34468 59.4522 6.15857 59.3344L5.21223 58.7377C5.02573 58.62 4.87471 58.359 4.87471 58.1553V57.1199C4.87471 56.9159 5.02573 56.846 5.21223 56.9638L6.15857 57.5604C6.34468 57.6803 6.4957 57.9392 6.4957 58.1428Z" stroke="#353535" stroke-width="9.73" stroke-miterlimit="10"/>
<path d="M6.4957 55.6254V56.6608C6.4957 56.8649 6.34468 56.9348 6.15857 56.817L5.21223 56.2199C5.02573 56.1026 4.87471 55.8416 4.87471 55.6379V54.6025C4.87471 54.3989 5.02573 54.329 5.21223 54.4468L6.15857 55.0434C6.34468 55.1608 6.4957 55.4214 6.4957 55.6254Z" stroke="#353535" stroke-width="9.73" stroke-miterlimit="10"/>
<path d="M63.1644 45.6956V46.731C63.1644 46.9346 63.3154 47.0045 63.5019 46.8867L64.4482 46.2901C64.6347 46.1723 64.7858 45.9117 64.7858 45.7077V44.6723C64.7858 44.4682 64.6347 44.3983 64.4482 44.5161L63.5019 45.1127C63.3154 45.2309 63.1644 45.492 63.1644 45.6956Z" stroke="#353535" stroke-width="9.73" stroke-miterlimit="10"/>
<path d="M65.3374 44.2973V45.3327C65.3374 45.5363 65.4884 45.6062 65.6749 45.4884L66.6213 44.8918C66.8078 44.774 66.9588 44.5134 66.9588 44.3094V43.274C66.9588 43.0699 66.8078 43 66.6213 43.1178L65.6749 43.7149C65.4884 43.8318 65.3374 44.0932 65.3374 44.2973Z" stroke="#353535" stroke-width="9.73" stroke-miterlimit="10"/>
<path d="M58.5846 17.8835V19.566C58.5846 19.9461 58.3031 20.4318 57.9537 20.651L48.8599 26.3983C48.5125 26.6179 48.229 26.4876 48.229 26.1075V24.425C48.229 24.045 48.5105 23.5592 48.8599 23.3396L57.9557 17.594C58.3035 17.3731 58.5846 17.5034 58.5846 17.8835Z" stroke="#353535" stroke-width="9.73" stroke-miterlimit="10"/>
<path d="M57.3161 18.9185V19.8745L49.309 24.9324V23.9768L57.3161 18.9185Z" fill="#353535"/>
<path d="M41.0088 36.2281V37.3127L33.9878 41.7476V40.6631L41.0088 36.2281Z" fill="#353535"/>
<path d="M41.0088 34.8295V35.914L33.9878 40.349V39.2644L41.0088 34.8295Z" fill="#353535"/>
<path d="M40.8449 33.4636V34.2604L35.6858 37.5193V36.7225L40.8449 33.4636Z" fill="#353535"/>
<path d="M54.1384 68.9868V69.7841L48.9797 73.043V72.2457L54.1384 68.9868Z" fill="#353535"/>
<path d="M10.1746 57.7148L16.5493 61.8227V53.6729L10.1746 49.6227V57.7148Z" fill="#EAA97D"/>
<path d="M22.9481 49.7061L16.5493 53.6729L10.1746 49.6228L16.6163 45.6309L22.9481 49.7061Z" fill="#F9D3A0"/>
<path d="M15.3207 28.6965V34.2329L17.8033 35.8006V30.2798L15.3207 28.6965Z" fill="#EAA97D"/>
<path d="M15.3207 28.6964L34.5076 16.6353L36.9633 18.1867L17.8033 30.2797L15.3207 28.6964Z" fill="#F9D3A0"/>
<path d="M38.5429 5.19343L51.3625 13.2441L55.0323 10.9088L42.2498 2.83402L38.5429 5.19343Z" fill="#F9D3A0"/>
<path d="M51.3625 13.2441V17.3421L55.0323 14.8645V10.9088L51.3625 13.2441Z" fill="#F2BE8F"/>
</svg>
